PathFileType  4	(X/Y/Z) C:\Users\antoi\Documents\MyRepositories\mobilecap\ResultsAnalysis
DataRate	CameraRate	NumFrames	NumMarkers	Units	OrigDataRate	OrigDataStartFrame	OrigNumFrames
100.0	100.0	4	51	mm	100.0	991	1321
Frame#	Time	r_knee			r_shank_antsup			r_ankle			r_calc			r_5meta			r_toe			L_knee			L_shank_antsup			L_ankle			L_calc			L_5meta			L_toe			r_sh2			r_sh3			r_sh4			L_sh2			L_sh3			r_thigh1			r_thigh2			r_thigh3			r_thigh4			r_thigh5			L_thigh1			L_thigh2			L_thigh3			L_thigh4			r.ASIS			r.PSIS			L.ASIS			L.PSIS			C7			R_Shoulder			L_Shoulder			R_Sternum			L_Sternum			R_humerus			R_elbow_med			R_elbow_lat			R_forearm			R_wrist_radius			R_wrist_ulna			L_humerus			L_elbow_med			L_elbow_lat			L_forearm			L_wrist_radius			L_wrist_ulna			R_HJC			L_HJC			R_HJC_reg			L_HJC_reg			
		X1	Y1	Z1	X2	Y2	Z2	X3	Y3	Z3	X4	Y4	Z4	X5	Y5	Z5	X6	Y6	Z6	X7	Y7	Z7	X8	Y8	Z8	X9	Y9	Z9	X10	Y10	Z10	X11	Y11	Z11	X12	Y12	Z12	X13	Y13	Z13	X14	Y14	Z14	X15	Y15	Z15	X16	Y16	Z16	X17	Y17	Z17	X18	Y18	Z18	X19	Y19	Z19	X20	Y20	Z20	X21	Y21	Z21	X22	Y22	Z22	X23	Y23	Z23	X24	Y24	Z24	X25	Y25	Z25	X26	Y26	Z26	X27	Y27	Z27	X28	Y28	Z28	X29	Y29	Z29	X30	Y30	Z30	X31	Y31	Z31	X32	Y32	Z32	X33	Y33	Z33	X34	Y34	Z34	X35	Y35	Z35	X36	Y36	Z36	X37	Y37	Z37	X38	Y38	Z38	X39	Y39	Z39	X40	Y40	Z40	X41	Y41	Z41	X42	Y42	Z42	X43	Y43	Z43	X44	Y44	Z44	X45	Y45	Z45	X46	Y46	Z46	X47	Y47	Z47	X48	Y48	Z48	X49	Y49	Z49	X50	Y50	Z50	X51	Y51	Z51	

991	9.90000000	-153.22175	442.54371	-409.37398	-102.97112	380.26159	-406.99935	-250.46186	82.02846	-429.23602	-304.91894	53.53042	-476.28651	-145.51289	42.49437	-400.55512	-106.50261	65.02219	-451.27925	-130.95672	440.11348	-784.18195	-87.97918	350.76764	-770.94972	-236.03156	89.44814	-762.35225	-294.01704	50.42810	-714.21315	-139.92203	44.24049	-798.62337	-85.80416	62.97303	-748.95926	-146.37575	275.85521	-404.46973	-170.36706	407.37905	-383.22365	-219.51852	302.35975	-382.04220	-159.84171	385.94703	-811.51234	-198.65916	269.59064	-814.66079	-352.93189	595.12128	-391.30013	-250.11414	548.85584	-391.61080	-259.56510	478.83366	-391.36028	-402.36787	495.75068	-412.19912	-294.14954	448.69611	-421.32185	-355.33187	607.72033	-807.95440	-231.55682	549.34960	-796.52910	-410.79295	508.84676	-803.18204	-285.75546	450.50427	-778.92894	-361.86685	668.59291	-497.75690	-543.82296	758.62419	-574.21874	-357.50033	660.82343	-709.33805	-542.49401	753.29274	-655.42364	-238.46460	1088.35957	-606.57426	-185.32195	1048.55921	-473.76441	-174.78992	1046.64419	-729.54062	-140.73059	986.66264	-581.98553	-144.25401	988.08421	-614.71516	-132.36798	976.02855	-409.47041	-76.67417	766.88723	-370.77793	-50.69996	810.13923	-323.60940	37.46915	839.91781	-340.37579	169.59766	840.86216	-387.50791	175.13663	806.49354	-370.99829	-123.68647	975.90222	-797.28521	-32.68353	770.53591	-800.02908	-12.56620	813.83356	-845.63327	91.17091	830.18934	-821.92273	204.84339	835.34142	-768.35164	207.49498	795.74172	-776.14994	-465.06964	611.05749	-499.18838	-459.70500	604.69491	-706.52892	-447.69283	630.87652	-525.40745	-445.41109	621.72165	-664.85586	
992	9.91000000	-153.82062	442.38214	-409.34004	-103.08119	380.18206	-407.22228	-250.48397	82.01725	-429.24632	-304.88333	53.47822	-476.23917	-145.54257	42.50110	-400.52903	-106.54131	65.02874	-451.30181	-131.96290	440.11948	-784.51888	-88.56929	350.70869	-770.59859	-236.14705	89.37968	-762.34265	-294.06882	50.24984	-714.04996	-139.95935	44.25366	-798.61402	-85.88138	63.12745	-748.97774	-146.11510	275.62775	-404.79811	-170.44234	407.16572	-383.20255	-219.43344	301.94727	-382.10572	-160.44838	385.80163	-811.36542	-198.88778	269.25079	-814.53175	-356.66448	590.69574	-391.60333	-253.01781	546.52587	-391.92091	-260.98045	476.21679	-391.58673	-404.12527	490.24252	-411.90999	-294.98118	445.35208	-421.10830	-359.62185	602.77701	-807.81995	-234.88881	546.87858	-796.17558	-413.28006	502.88779	-802.96068	-287.04321	447.00857	-778.86108	-365.10004	661.64166	-497.94041	-547.65370	750.64797	-574.29837	-361.03557	653.44099	-709.56499	-546.30405	745.39206	-655.39068	-241.69065	1079.82515	-606.90663	-188.78147	1039.58255	-475.23490	-177.91383	1038.15289	-729.80320	-145.37012	976.48943	-581.66012	-147.50284	977.52194	-613.70711	-134.77588	968.56718	-410.10731	-77.45770	759.65381	-371.47863	-51.73588	803.58066	-323.87521	36.16834	834.02512	-340.65755	168.34030	835.84976	-388.21166	174.06420	801.72132	-371.35424	-126.39405	967.74307	-797.32964	-33.70088	763.09997	-799.65976	-14.01427	806.50394	-845.28038	89.56584	823.76864	-821.57186	203.19312	829.88511	-767.82276	206.12052	790.20266	-775.44038	-468.07516	603.63026	-499.11738	-463.02115	596.94773	-706.45525	-450.87790	623.11048	-525.60846	-448.55626	614.06967	-665.09951	
993	9.92000000	-154.49213	442.13035	-409.44967	-103.31324	380.10469	-407.73136	-250.50623	82.05229	-429.23514	-304.88847	53.46031	-476.32145	-145.55787	42.49559	-400.53413	-106.59104	65.09461	-451.38766	-133.12517	440.08592	-784.49898	-89.04842	350.97101	-770.63937	-236.26509	89.33576	-762.33478	-294.08321	50.11413	-714.03227	-139.99106	44.27079	-798.60785	-85.94439	63.26071	-748.98356	-145.90429	275.43566	-405.20129	-170.55091	406.99037	-383.23329	-219.37985	301.37496	-382.30968	-160.99070	385.88956	-811.48317	-199.12563	269.14709	-814.59824	-360.46919	586.45546	-391.67105	-255.76452	544.34327	-392.21560	-262.34620	473.71045	-391.90317	-405.86936	484.98998	-411.38324	-295.87544	442.03860	-421.13270	-364.01266	597.91168	-807.57670	-238.30687	544.55991	-795.79976	-415.81724	497.10027	-802.84112	-288.51624	443.65389	-778.66990	-368.54898	654.93176	-497.80765	-551.54173	742.91504	-574.43435	-364.67131	646.32237	-709.80667	-550.18453	737.55250	-655.29632	-245.26225	1071.65566	-607.22254	-192.39785	1031.49270	-476.34842	-181.33719	1030.00111	-730.24253	-150.75475	966.40635	-581.29481	-150.96062	967.91866	-613.08111	-137.44448	961.48380	-410.85979	-78.47624	753.27274	-371.65892	-53.07252	797.39254	-324.16342	34.55396	828.53338	-340.97895	166.63617	831.36320	-388.37044	172.71251	797.28769	-371.71657	-129.34766	960.05823	-797.62215	-35.03300	756.01879	-799.22179	-15.78081	799.56555	-844.80927	87.70111	817.74897	-821.10369	201.26056	824.70669	-767.30195	204.47634	785.00283	-774.97243	-471.23613	596.42759	-498.95705	-466.36324	589.38242	-706.28762	-454.27630	615.79028	-525.45737	-451.93168	606.52203	-665.18822	
994	9.93000000	-155.31642	441.89875	-409.66144	-103.70606	380.14022	-408.34073	-250.53792	82.04780	-429.24286	-304.91613	53.39748	-476.38610	-145.57597	42.50048	-400.57691	-106.62647	65.17285	-451.46160	-134.47948	440.03629	-784.13438	-89.59405	351.37937	-770.59853	-236.35126	89.30129	-762.27033	-294.02977	50.03169	-714.06678	-140.01162	44.30708	-798.59204	-85.94084	63.41024	-749.01808	-145.83870	275.34114	-405.75689	-170.82180	406.78810	-383.42843	-219.34006	300.91811	-382.53206	-161.67073	386.02093	-811.44109	-199.44418	269.05486	-814.50989	-364.12282	582.40900	-391.69882	-258.47463	542.43727	-392.44241	-263.64664	471.37083	-392.20305	-407.59775	479.99705	-410.63886	-296.82548	438.99863	-421.06632	-368.39964	593.19558	-807.32137	-241.77762	542.42821	-795.50330	-418.36003	491.54173	-802.99922	-290.07236	440.46396	-778.56219	-372.20040	648.37425	-497.42426	-555.50517	735.31904	-574.50943	-368.61251	639.85963	-710.42363	-554.20864	729.77039	-655.15663	-249.14325	1064.02335	-607.67635	-195.98214	1024.52677	-476.50974	-185.10997	1022.25400	-730.58119	-154.20974	959.08272	-581.84717	-154.52452	960.19971	-613.47571	-140.43703	954.76790	-411.63884	-79.89963	747.44840	-371.10017	-54.76966	791.65612	-324.43545	32.58930	823.44893	-341.32989	164.52066	827.41093	-388.32506	171.01168	793.11881	-372.15163	-132.61022	952.86752	-797.95573	-36.71832	749.43289	-798.87238	-17.83526	792.96836	-844.34250	85.48817	812.04334	-820.62286	199.00612	819.78319	-766.89239	202.65857	780.46798	-775.07165	-474.45787	589.26442	-498.98303	-469.77358	582.23824	-706.31862	-457.91333	608.83759	-525.05386	-455.65758	599.17986	-665.41546	
